<svg version="1.1" xmlns="http://www.w3.org/2000/svg" viewBox="0 0 719 660" width="719" height="660">
  <!-- svg-source:excalidraw -->
  
  <defs>
    <style class="style-fonts">
      @font-face {
        font-family: "Virgil";
        src: url("https://excalidraw.com/Virgil.woff2");
      }
      @font-face {
        font-family: "Cascadia";
        src: url("https://excalidraw.com/Cascadia.woff2");
      }
    </style>
    
  </defs>
  <rect x="0" y="0" width="719" height="660" fill="#ffffff"></rect><g stroke-linecap="round" transform="translate(90 553) rotate(0 133 35.5)"><path d="M1.26 1.16 C69.45 0.76, 137.33 2.9, 265.96 -0.91 M0.03 0.35 C70.04 0.55, 138.86 -0.94, 266.07 -0.02 M267.28 -0.12 C264.66 19.32, 266.9 35.47, 264 71.85 M265.54 0.18 C264.94 19.13, 266.35 38.61, 266.52 72 M264.57 72.1 C181.8 69.64, 99.88 70.53, -0.43 71.71 M265.24 70.66 C212.91 70.85, 159.52 71.29, -0.5 70.41 M1.46 69.05 C-1.35 49.79, 0.54 25.6, 1.82 -1.54 M0.29 71.32 C0.79 45.3, -0.42 19.62, 0.82 0.12" stroke="#1e1e1e" stroke-width="1" fill="none"></path></g><g transform="translate(108.34375 576) rotate(0 114.65625 12.5)"><text x="114.65625" y="0" font-family="Virgil, Segoe UI Emoji" font-size="20px" fill="#1e1e1e" text-anchor="middle" style="white-space: pre;" direction="ltr" dominant-baseline="text-before-edge">user_interface_spec.rb</text></g><g stroke-linecap="round" transform="translate(10 70) rotate(0 154.5 158)"><path d="M-0.47 -1.41 C95.49 -0.61, 191.75 -1.18, 308.72 -0.12 M0.31 -0.33 C103.05 -0.71, 206.61 -0.54, 309.27 0.03 M308.01 0.08 C310.14 97.91, 308.89 194.3, 309.31 314.84 M309.31 0.08 C307.89 68.08, 308.66 137.6, 308.78 315.44 M307.82 316.49 C238.07 317.33, 168.44 315.48, -0.13 316.56 M309.68 315.44 C236.84 316.35, 163.46 316.53, -0.42 315.78 M-0.97 314.67 C1.71 247.16, -0.41 176.21, 1.15 1.33 M0.37 316.03 C-1.55 222.76, -1.26 129.28, -0.31 -0.63" stroke="#1e1e1e" stroke-width="1" fill="none"></path></g><g transform="translate(73 102) rotate(0 85.55208587646484 12.5)"><text x="0" y="0" font-family="Virgil, Segoe UI Emoji" font-size="20px" fill="#1e1e1e" text-anchor="start" style="white-space: pre;" direction="ltr" dominant-baseline="text-before-edge">user_interface.rb</text></g><g stroke-linecap="round"><g transform="translate(184.0329088014862 402.5742485687023) rotate(0 7.242300684838938 73.31584595394048)"><path d="M-0.22 -1.4 C5.77 46.95, 9.85 94.99, 14.16 148.03 M-0.77 0.12 C5.09 41.28, 9.18 81.78, 15.26 146.68" stroke="#1e1e1e" stroke-width="1" fill="none"></path></g><g transform="translate(184.0329088014862 402.5742485687023) rotate(0 7.242300684838938 73.31584595394048)"><path d="M2.13 118.2 C7.95 128.07, 11.34 137.66, 14.34 147.66 M1.58 119.71 C6.5 127.22, 9.99 134.09, 15.44 146.31" stroke="#1e1e1e" stroke-width="1" fill="none"></path></g><g transform="translate(184.0329088014862 402.5742485687023) rotate(0 7.242300684838938 73.31584595394048)"><path d="M22.55 116.24 C21.82 126.56, 18.66 136.78, 14.34 147.66 M22.01 117.75 C21.21 125.8, 18.96 133.22, 15.44 146.31" stroke="#1e1e1e" stroke-width="1" fill="none"></path></g></g><mask></mask><g stroke-linecap="round" transform="translate(443 300) rotate(0 98.5 175)"><path d="M-1.9 -0.74 C44.85 1.98, 95.15 2.56, 196.98 -1.79 M0.16 -0.85 C52.66 0.31, 105.43 0.1, 196.45 0.96 M197.17 0.86 C199.05 78.78, 199.11 154.78, 197.05 350.25 M197.26 -0.33 C196.54 112.81, 196.37 225.31, 197.2 349.66 M198.88 349.97 C139.85 353.06, 82.5 352.3, 1.67 349.76 M196.93 349.96 C123.53 351.16, 52.71 351.29, -0.8 350.62 M-1.16 349.13 C-0.99 225.8, -2.95 99.71, -0.42 0.12 M-0.19 350.19 C1.36 275.05, 2.48 201.31, 0.02 -0.46" stroke="#1e1e1e" stroke-width="1" fill="none"></path></g><g transform="translate(450.09375 350) rotate(0 91.40625 125)"><text x="91.40625" y="0" font-family="Virgil, Segoe UI Emoji" font-size="20px" fill="#1e1e1e" text-anchor="middle" style="white-space: pre;" direction="ltr" dominant-baseline="text-before-edge">Runs new instance</text><text x="91.40625" y="25" font-family="Virgil, Segoe UI Emoji" font-size="20px" fill="#1e1e1e" text-anchor="middle" style="white-space: pre;" direction="ltr" dominant-baseline="text-before-edge">of user_interface,</text><text x="91.40625" y="50" font-family="Virgil, Segoe UI Emoji" font-size="20px" fill="#1e1e1e" text-anchor="middle" style="white-space: pre;" direction="ltr" dominant-baseline="text-before-edge">giving it a new </text><text x="91.40625" y="75" font-family="Virgil, Segoe UI Emoji" font-size="20px" fill="#1e1e1e" text-anchor="middle" style="white-space: pre;" direction="ltr" dominant-baseline="text-before-edge">instance of </text><text x="91.40625" y="100" font-family="Virgil, Segoe UI Emoji" font-size="20px" fill="#1e1e1e" text-anchor="middle" style="white-space: pre;" direction="ltr" dominant-baseline="text-before-edge">TerminalIO and </text><text x="91.40625" y="125" font-family="Virgil, Segoe UI Emoji" font-size="20px" fill="#1e1e1e" text-anchor="middle" style="white-space: pre;" direction="ltr" dominant-baseline="text-before-edge">Game  </text><text x="91.40625" y="150" font-family="Virgil, Segoe UI Emoji" font-size="20px" fill="#1e1e1e" text-anchor="middle" style="white-space: pre;" direction="ltr" dominant-baseline="text-before-edge"></text><text x="91.40625" y="175" font-family="Virgil, Segoe UI Emoji" font-size="20px" fill="#1e1e1e" text-anchor="middle" style="white-space: pre;" direction="ltr" dominant-baseline="text-before-edge">Also includes </text><text x="91.40625" y="200" font-family="Virgil, Segoe UI Emoji" font-size="20px" fill="#1e1e1e" text-anchor="middle" style="white-space: pre;" direction="ltr" dominant-baseline="text-before-edge">definition of </text><text x="91.40625" y="225" font-family="Virgil, Segoe UI Emoji" font-size="20px" fill="#1e1e1e" text-anchor="middle" style="white-space: pre;" direction="ltr" dominant-baseline="text-before-edge">TerminalIO class </text></g><g stroke-linecap="round" transform="translate(451 10) rotate(0 129 111.5)"><path d="M-0.97 -0.52 C98.93 0.01, 196.21 0.23, 257.54 0.47 M0.35 0.03 C54.99 -2.38, 110.36 -1.35, 258.6 0.65 M256.97 -1.53 C258.09 54.75, 255.93 114.32, 257.76 223.35 M257.38 -0.77 C257.27 73.15, 257.23 145.92, 257.32 223.15 M259.11 222.49 C169.16 224.98, 82.16 223.62, 1.38 223.28 M258.56 223.29 C159.07 221.85, 61.12 222.88, -0.11 223.04 M-0.11 224.16 C0.11 154.96, 1.97 88.16, 1.43 0.28 M0.74 223.52 C-2.06 143.6, -2.34 64.39, 0.68 -0.7" stroke="#1e1e1e" stroke-width="1" fill="none"></path></g><g stroke-linecap="round"><g transform="translate(610.6944372851417 245.57948717948716) rotate(0 -17.04501936104225 21.91835283778977)"><path d="M-1.21 0.15 C-12.4 12.27, -22.77 25.65, -33.62 43.69 M0.8 0.52 C-11.68 14.19, -24.33 28.7, -34.89 42.27" stroke="#1e1e1e" stroke-width="1" fill="none"></path></g><g transform="translate(610.6944372851417 245.57948717948716) rotate(0 -17.04501936104225 21.91835283778977)"><path d="M-27.33 16.76 C-30.4 23.95, -32.7 32.19, -34.15 43.99 M-25.33 17.13 C-28.88 25.31, -32.59 34.12, -35.43 42.57" stroke="#1e1e1e" stroke-width="1" fill="none"></path></g><g transform="translate(610.6944372851417 245.57948717948716) rotate(0 -17.04501936104225 21.91835283778977)"><path d="M-12.89 28.39 C-20.47 31.8, -27.33 36.37, -34.15 43.99 M-10.88 28.76 C-19.5 32.76, -28.25 37.51, -35.43 42.57" stroke="#1e1e1e" stroke-width="1" fill="none"></path></g></g><mask></mask><g stroke-linecap="round"><g transform="translate(335.95980998737 106.11641258780202) rotate(0 48.78276596363355 88.16737209592412)"><path d="M0.96 -1.48 C25.89 49.2, 55.81 101.56, 95.97 177.8 M0.31 -0.22 C30.98 55.98, 59.32 110.69, 97.26 177.81" stroke="#1e1e1e" stroke-width="1" fill="none"></path></g><g transform="translate(335.95980998737 106.11641258780202) rotate(0 48.78276596363355 88.16737209592412)"><path d="M75.68 156.49 C80 162.48, 88.84 169.69, 96.2 178.18 M74.95 157.9 C82.34 165.13, 87.66 171.31, 97.64 178.19" stroke="#1e1e1e" stroke-width="1" fill="none"></path></g><g transform="translate(335.95980998737 106.11641258780202) rotate(0 48.78276596363355 88.16737209592412)"><path d="M93.62 146.54 C92.72 155.54, 96.41 165.61, 96.2 178.18 M92.89 147.94 C94.8 158.09, 94.6 167.33, 97.64 178.19" stroke="#1e1e1e" stroke-width="1" fill="none"></path></g></g><mask></mask><g transform="translate(520 317) rotate(0 26.77083396911621 12.5)"><text x="0" y="0" font-family="Virgil, Segoe UI Emoji" font-size="20px" fill="#1e1e1e" text-anchor="start" style="white-space: pre;" direction="ltr" dominant-baseline="text-before-edge">run.rb</text></g><g transform="translate(520 25) rotate(0 35.60416793823242 12.5)"><text x="0" y="0" font-family="Virgil, Segoe UI Emoji" font-size="20px" fill="#1e1e1e" text-anchor="start" style="white-space: pre;" direction="ltr" dominant-baseline="text-before-edge">game.rb</text></g><g transform="translate(486.3645782470703 77.84010406243749) rotate(0 102.67708587646484 49.26355813488095)"><text x="102.67708587646484" y="0" font-family="Virgil, Segoe UI Emoji" font-size="19.705423253952375px" fill="#1e1e1e" text-anchor="middle" style="white-space: pre;" direction="ltr" dominant-baseline="text-before-edge">Starts with stubs</text><text x="102.67708587646484" y="24.63177906744047" font-family="Virgil, Segoe UI Emoji" font-size="19.705423253952375px" fill="#1e1e1e" text-anchor="middle" style="white-space: pre;" direction="ltr" dominant-baseline="text-before-edge"> for unplaced_ships, </text><text x="102.67708587646484" y="49.26355813488094" font-family="Virgil, Segoe UI Emoji" font-size="19.705423253952375px" fill="#1e1e1e" text-anchor="middle" style="white-space: pre;" direction="ltr" dominant-baseline="text-before-edge">rows, cols, </text><text x="102.67708587646484" y="73.8953372023214" font-family="Virgil, Segoe UI Emoji" font-size="19.705423253952375px" fill="#1e1e1e" text-anchor="middle" style="white-space: pre;" direction="ltr" dominant-baseline="text-before-edge">place_ships    </text></g><g transform="translate(28 164) rotate(0 138.0416717529297 100)"><text x="0" y="0" font-family="Virgil, Segoe UI Emoji" font-size="20.000000000000004px" fill="#1e1e1e" text-anchor="start" style="white-space: pre;" direction="ltr" dominant-baseline="text-before-edge">Has a single public </text><text x="0" y="25.000000000000004" font-family="Virgil, Segoe UI Emoji" font-size="20.000000000000004px" fill="#1e1e1e" text-anchor="start" style="white-space: pre;" direction="ltr" dominant-baseline="text-before-edge">method (run) and some</text><text x="0" y="50.00000000000001" font-family="Virgil, Segoe UI Emoji" font-size="20.000000000000004px" fill="#1e1e1e" text-anchor="start" style="white-space: pre;" direction="ltr" dominant-baseline="text-before-edge">internally used private</text><text x="0" y="75.00000000000001" font-family="Virgil, Segoe UI Emoji" font-size="20.000000000000004px" fill="#1e1e1e" text-anchor="start" style="white-space: pre;" direction="ltr" dominant-baseline="text-before-edge">methods (show, prompt,</text><text x="0" y="100.00000000000001" font-family="Virgil, Segoe UI Emoji" font-size="20.000000000000004px" fill="#1e1e1e" text-anchor="start" style="white-space: pre;" direction="ltr" dominant-baseline="text-before-edge">ships_unplaced_message,</text><text x="0" y="125.00000000000001" font-family="Virgil, Segoe UI Emoji" font-size="20.000000000000004px" fill="#1e1e1e" text-anchor="start" style="white-space: pre;" direction="ltr" dominant-baseline="text-before-edge">prompt_for_ship_placement,</text><text x="0" y="150.00000000000003" font-family="Virgil, Segoe UI Emoji" font-size="20.000000000000004px" fill="#1e1e1e" text-anchor="start" style="white-space: pre;" direction="ltr" dominant-baseline="text-before-edge">format_board)</text><text x="0" y="175.00000000000003" font-family="Virgil, Segoe UI Emoji" font-size="20.000000000000004px" fill="#1e1e1e" text-anchor="start" style="white-space: pre;" direction="ltr" dominant-baseline="text-before-edge"> </text></g></svg>